HIERARCHY
ROOT Hips
{
	OFFSET 0.00000 0.00000 0.00000
	CHANNELS 6 Xposition Yposition Zposition Zrotation Yrotation Xrotation 
	JOINT LHipJoint
	{
		OFFSET 0 0 0
		CHANNELS 3 Zrotation Yrotation Xrotation
		JOINT LeftUpLeg
		{
			OFFSET 1.82298 -1.58346 0.87084
			CHANNELS 3 Zrotation Yrotation Xrotation
			JOINT LeftLeg
			{
				OFFSET 2.43790 -6.69809 0.00000
				CHANNELS 3 Zrotation Yrotation Xrotation
				JOINT LeftFoot
				{
					OFFSET 2.59288 -7.12389 0.00000
					CHANNELS 3 Zrotation Yrotation Xrotation
					JOINT LeftToeBase
					{
						OFFSET 0.14552 -0.39981 2.13160
						CHANNELS 3 Zrotation Yrotation Xrotation
						End Site
						{
							OFFSET 0.00000 -0.00000 1.09427
						}
					}
				}
			}
		}
	}
	JOINT RHipJoint
	{
		OFFSET 0 0 0
		CHANNELS 3 Zrotation Yrotation Xrotation
		JOINT RightUpLeg
		{
			OFFSET -1.77229 -1.58346 0.87084
			CHANNELS 3 Zrotation Yrotation Xrotation
			JOINT RightLeg
			{
				OFFSET -2.50703 -6.88801 0.00000
				CHANNELS 3 Zrotation Yrotation Xrotation
				JOINT RightFoot
				{
					OFFSET -2.61620 -7.18796 0.00000
					CHANNELS 3 Zrotation Yrotation Xrotation
					JOINT RightToeBase
					{
						OFFSET -0.15190 -0.41735 2.15974
						CHANNELS 3 Zrotation Yrotation Xrotation
						End Site
						{
							OFFSET -0.00000 -0.00000 1.10919
						}
					}
				}
			}
		}
	}
	JOINT LowerBack
	{
		OFFSET 0 0 0
		CHANNELS 3 Zrotation Yrotation Xrotation
		JOINT Spine
		{
			OFFSET -0.03602 2.12423 -0.30249
			CHANNELS 3 Zrotation Yrotation Xrotation
			JOINT Spine1
			{
				OFFSET 0.02717 2.10043 0.12912
				CHANNELS 3 Zrotation Yrotation Xrotation
				JOINT Neck
				{
					OFFSET 0 0 0
					CHANNELS 3 Zrotation Yrotation Xrotation
					JOINT Neck1
					{
						OFFSET -0.06371 1.88656 0.11602
						CHANNELS 3 Zrotation Yrotation Xrotation
						JOINT Head
						{
							OFFSET 0.08208 1.87759 -0.11505
							CHANNELS 3 Zrotation Yrotation Xrotation
							End Site
							{
								OFFSET 0.03382 1.93090 -0.05483
							}
						}
					}
				}
				JOINT LeftShoulder
				{
					OFFSET 0 0 0
					CHANNELS 3 Zrotation Yrotation Xrotation
					JOINT LeftArm
					{
						OFFSET 3.30903 1.40357 0.20156
						CHANNELS 3 Zrotation Yrotation Xrotation
						JOINT LeftForeArm
						{
							OFFSET 5.43301 -0.00000 0.00000
							CHANNELS 3 Zrotation Yrotation Xrotation
							JOINT LeftHand
							{
								OFFSET 3.15936 -0.00000 0.00000
								CHANNELS 3 Zrotation Yrotation Xrotation
								JOINT LeftFingerBase
								{
									OFFSET 0 0 0
									CHANNELS 3 Zrotation Yrotation Xrotation
									JOINT LeftHandIndex1
									{
										OFFSET 0.71283 -0.00000 0.00000
										CHANNELS 3 Zrotation Yrotation Xrotation
										End Site
										{
											OFFSET 0.57470 -0.00000 0.00000
										}
									}
								}
								JOINT LThumb
								{
									OFFSET 0 0 0
									CHANNELS 3 Zrotation Yrotation Xrotation
									End Site
									{
										OFFSET 0.58347 -0.00000 0.58347
									}
								}
							}
						}
					}
				}
				JOINT RightShoulder
				{
					OFFSET 0 0 0
					CHANNELS 3 Zrotation Yrotation Xrotation
					JOINT RightArm
					{
						OFFSET -3.12947 1.60037 -0.00464
						CHANNELS 3 Zrotation Yrotation Xrotation
						JOINT RightForeArm
						{
							OFFSET -5.34194 -0.00000 0.00000
							CHANNELS 3 Zrotation Yrotation Xrotation
							JOINT RightHand
							{
								OFFSET -3.19351 -0.00000 0.00000
								CHANNELS 3 Zrotation Yrotation Xrotation
								JOINT RightFingerBase
								{
									OFFSET 0 0 0
									CHANNELS 3 Zrotation Yrotation Xrotation
									JOINT RightHandIndex1
									{
										OFFSET -0.74386 -0.00000 0.00000
										CHANNELS 3 Zrotation Yrotation Xrotation
										End Site
										{
											OFFSET -0.59972 -0.00000 0.00000
										}
									}
								}
								JOINT RThumb
								{
									OFFSET 0 0 0
									CHANNELS 3 Zrotation Yrotation Xrotation
									End Site
									{
										OFFSET -0.60888 -0.00000 0.60888
									}
								}
							}
						}
					}
				}
			}
		}
	}
}
MOTION
Frames: 15
Frame Time: .0083333
-0.5690 14.8830 0.2866 -4.7926 -11.4509 12.5037 0.0000 0.0000 0.0000 -16.1725 6.4774 -64.1026 13.7868 19.0481 71.5523 -0.7460 19.2748 -20.0221 0.0370 -1.2409 -3.4119 0.0000 0.0000 0.0000 10.3670 -3.5900 -11.7426 -15.4595 -19.4984 76.6170 1.6381 -23.0582 -16.5455 -1.3149 -7.2632 20.4975 -4.6682 4.4329 14.3513 1.2895 5.2107 -1.8118 2.8027 2.8023 -10.6031 -5.4864 -0.6077 -2.8662 6.3880 -0.6850 -0.0536 2.9944 -0.2981 0.5287 -0.0000 -0.0000 0.0000 -149.3083 -59.9648 162.0947 137.2883 -49.5969 -99.5191 -0.0000 0.0000 -18.8337 -13.0785 28.6560 -6.3568 -7.1250 0.0000 -0.0000 -44.3552 53.0096 -10.3653 -0.0000 -0.0000 0.0000 85.3471 47.4306 77.8200 -24.2640 35.4421 -7.8591 0.0000 0.0000 2.5242 -7.6781 -16.8169 2.2336 7.1250 -0.0000 -0.0000 18.8947 -46.0392 -0.5025
-0.5493 14.8683 0.1356 -5.2075 -13.1939 12.8601 0.0000 0.0000 0.0000 -15.7859 7.3647 -65.1052 13.8250 19.0601 71.6694 -0.8241 19.5940 -19.6974 0.0266 -1.0520 -2.8918 0.0000 0.0000 0.0000 9.1663 -3.7999 -9.6949 -14.0773 -19.1373 72.4405 1.6579 -23.0070 -15.9132 -1.1413 -6.7841 19.0774 -4.4700 4.5610 14.1322 1.3005 5.4299 -2.0165 2.6554 2.9016 -10.7066 -5.4457 -0.2135 -3.1303 6.2115 -0.1605 0.3474 2.9367 -0.0324 0.6675 0.0000 0.0000 0.0000 -150.7019 -60.1820 163.8334 138.3958 -48.9921 -100.3586 -0.0000 0.0000 -17.3071 -11.8310 29.1699 -5.8296 -7.1250 0.0000 -0.0000 -43.7210 53.6302 -10.8978 0.0000 0.0000 0.0000 86.7051 47.3928 81.7660 -25.3621 36.5718 -8.5047 0.0000 0.0000 2.6550 -7.7573 -16.7346 2.2462 7.1250 -0.0000 -0.0000 18.7930 -45.9707 -0.4667
-0.5309 14.8553 -0.0147 -5.6253 -15.0658 13.1500 0.0000 0.0000 0.0000 -15.3853 8.3638 -65.9800 13.8555 19.0696 71.7628 -0.9029 19.9465 -19.4344 0.0158 -0.8128 -2.2339 0.0000 0.0000 0.0000 7.9173 -3.9672 -7.7878 -12.7004 -18.6713 68.1923 1.6186 -22.5040 -14.6119 -0.8955 -6.0313 16.8752 -4.2915 4.7123 13.9667 1.3134 5.6739 -2.1771 2.5140 3.0122 -10.7951 -5.3586 0.2034 -3.4033 5.9919 0.3947 0.7441 2.8585 0.2477 0.8056 -0.0000 -0.0000 0.0000 -151.2636 -60.6732 164.6517 139.3437 -48.4540 -101.0710 -0.0000 0.0000 -15.7559 -10.3982 28.9540 -5.0765 -7.1250 0.0000 -0.0000 -42.2920 53.7327 -10.5412 -0.0000 -0.0000 0.0000 88.0009 47.2429 85.4806 -26.6935 37.8853 -9.3103 0.0000 0.0000 2.9067 -7.5378 -16.4836 2.1502 7.1250 -0.0000 -0.0000 18.8959 -45.7055 -0.3412
-0.5151 14.8452 -0.1644 -6.0573 -17.0488 13.3683 0.0000 0.0000 0.0000 -14.9464 9.4669 -66.6996 13.8746 19.0756 71.8212 -0.9837 20.3333 -19.2307 0.0067 -0.5281 -1.4511 0.0000 0.0000 0.0000 6.6724 -4.0641 -6.0082 -11.3586 -18.1061 63.9406 1.5116 -21.5653 -12.9043 -0.6138 -5.0142 13.9491 -4.1242 4.9029 13.8607 1.3282 5.9657 -2.2958 2.3670 3.1446 -10.8754 -5.2114 0.6213 -3.6450 5.7341 0.9496 1.1186 2.7581 0.5262 0.9331 0.0000 -0.0000 0.0000 -150.9214 -61.4092 164.5423 140.1869 -47.9588 -101.6997 -0.0000 0.0000 -14.3847 -8.6061 28.0282 -4.0679 -7.1250 0.0000 -0.0000 -39.9570 53.3409 -9.3753 0.0000 -0.0000 0.0000 89.1308 46.9456 88.7848 -28.3144 39.4041 -10.3227 0.0000 0.0000 3.2741 -6.9858 -16.0222 1.9370 7.1250 -0.0000 -0.0000 19.2171 -45.2016 -0.0993
-0.5030 14.8392 -0.3138 -6.5133 -19.1162 13.5203 0.0000 0.0000 0.0000 -14.4431 10.6504 -67.2415 13.8780 19.0766 71.8316 -1.0658 20.7499 -19.0909 0.0009 -0.1949 -0.5356 0.0000 0.0000 0.0000 5.4917 -4.0491 -4.3451 -10.0795 -17.4543 59.7538 1.3441 -20.2429 -11.1015 -0.3428 -3.7623 10.4089 -3.9710 5.1383 13.8077 1.3493 6.3132 -2.3687 2.2192 3.3028 -10.9411 -4.9990 1.0246 -3.8462 5.4512 1.4821 1.4641 2.6384 0.7924 1.0482 -0.0000 -0.0000 0.0000 -149.5753 -62.3601 163.4422 140.9823 -47.4771 -102.2882 -0.0000 0.0000 -13.4075 -6.3827 26.5462 -2.8620 -7.1250 0.0000 -0.0000 -36.8469 52.5486 -7.6930 -0.0000 -0.0000 0.0000 89.9609 46.4678 91.5064 -30.3284 41.1732 -11.6252 0.0000 0.0000 3.7894 -6.0778 -15.3345 1.6129 7.1250 -0.0000 -0.0000 19.7682 -44.4463 0.2816
-0.4962 14.8382 -0.4653 -7.0043 -21.1958 13.6657 0.0000 0.0000 0.0000 -13.8470 11.8354 -67.6504 13.8628 19.0719 71.7851 -1.1587 21.2172 -18.9422 0.0005 0.1470 0.4037 0.0000 0.0000 0.0000 4.4654 -3.8944 -2.8393 -8.8909 -16.7370 55.7121 1.1436 -18.6544 -9.4418 -0.1330 -2.3507 6.4759 -3.8385 5.4028 13.7856 1.3875 6.6966 -2.4268 2.0905 3.4795 -11.0143 -4.7257 1.4040 -3.9846 5.1559 1.9785 1.7880 2.5039 1.0393 1.1505 0.0000 -0.0000 0.0000 -147.0438 -63.4521 161.1863 141.7621 -46.9906 -102.8606 -0.0000 0.0000 -12.8259 -3.9312 24.7052 -1.6452 -7.1250 0.0000 -0.0000 -33.3714 51.4397 -5.8427 0.0000 -0.0000 0.0000 90.3927 45.7450 93.5217 -32.8521 43.2160 -13.3207 0.0000 0.0000 4.4867 -4.8479 -14.4217 1.2101 7.1250 -0.0000 -0.0000 20.5144 -43.4526 0.8202
-0.4953 14.8419 -0.6185 -7.5586 -23.2591 13.8121 0.0000 0.0000 0.0000 -13.1130 12.9905 -67.9057 13.8305 19.0618 71.6863 -1.2634 21.7305 -18.7653 0.0058 0.4902 1.3469 0.0000 0.0000 0.0000 3.6627 -3.5509 -1.4651 -7.8130 -15.9800 51.8865 0.9400 -16.9375 -8.0543 -0.0171 -0.8431 2.3173 -3.7095 5.6851 13.7951 1.4549 7.1053 -2.4697 1.9867 3.6688 -11.0942 -4.4000 1.7611 -4.0602 4.8618 2.4405 2.0970 2.3605 1.2685 1.2422 0.0000 0.0000 0.0000 -143.1049 -64.5925 157.5386 142.5266 -46.4996 -103.4175 -0.0000 0.0000 -12.4927 -1.7295 22.5984 -0.6648 -7.1250 0.0000 -0.0000 -30.0884 49.9890 -4.0235 0.0000 0.0000 0.0000 90.3860 44.7273 94.7816 -36.0163 45.5243 -15.5341 0.0000 0.0000 5.4201 -3.3463 -13.2908 0.7701 7.1250 -0.0000 -0.0000 21.4085 -42.2410 1.5348
-0.5013 14.8486 -0.7751 -8.2121 -25.2371 14.0185 0.0000 0.0000 0.0000 -12.1894 14.0442 -68.0535 13.7877 19.0484 71.5551 -1.3752 22.2514 -18.5259 0.0165 0.8295 2.2797 0.0000 0.0000 0.0000 3.1692 -3.0101 -0.2431 -6.8611 -15.2138 48.3471 0.7586 -15.2537 -6.9724 -0.0089 0.6107 -1.6783 -3.5570 5.9550 13.8046 1.5691 7.5070 -2.5118 1.9215 3.8551 -11.1752 -4.0374 2.1011 -4.0992 4.5770 2.8760 2.4245 2.2147 1.4845 1.3379 -0.0000 0.0000 0.0000 -137.5218 -65.6388 152.1952 143.2401 -46.0287 -103.9330 -0.0000 0.0000 -12.1275 -0.3553 20.2088 -0.1227 -7.1250 0.0000 -0.0000 -27.5548 48.0940 -2.2652 -0.0000 0.0000 0.0000 89.9377 43.3619 95.2901 -39.9770 48.0562 -18.4221 0.0000 0.0000 6.5666 -1.6056 -11.9294 0.3320 7.1250 -0.0000 -0.0000 22.4119 -40.8118 2.4555
-0.5143 14.8555 -0.9350 -9.0026 -27.0760 14.3240 0.0000 0.0000 0.0000 -11.0304 14.9491 -68.1217 13.7449 19.0348 71.4239 -1.4853 22.7295 -18.2051 0.0325 1.1633 3.1984 0.0000 0.0000 0.0000 3.0381 -2.2991 0.8353 -6.0388 -14.4659 45.1374 0.6115 -13.7329 -6.1843 -0.0913 1.9491 -5.3650 -3.3398 6.1803 13.7863 1.7436 7.8681 -2.5502 1.8991 4.0205 -11.2322 -3.6511 2.4375 -4.1158 4.3025 3.3047 2.7641 2.0697 1.6973 1.4373 0.0000 0.0000 0.0000 -130.1298 -66.3993 144.8841 143.8527 -45.6142 -104.3723 -0.0000 0.0000 -11.3845 -0.4575 17.4850 -0.1375 -7.1250 0.0000 -0.0000 -26.3319 45.6511 -0.4551 0.0000 0.0000 0.0000 89.1076 41.6293 95.1431 -44.9009 50.7198 -22.1620 0.0000 0.0000 7.7694 0.3128 -10.3515 -0.0562 7.1250 -0.0000 -0.0000 23.4719 -39.1911 3.5944
-0.5337 14.8592 -1.0976 -9.9452 -28.7158 14.7460 0.0000 0.0000 0.0000 -9.6147 15.6588 -68.1306 13.7137 19.0249 71.3281 -1.5768 23.0845 -17.8047 0.0543 1.5037 4.1360 0.0000 0.0000 0.0000 3.2812 -1.5005 1.7895 -5.3411 -13.7579 42.2761 0.5045 -12.4991 -5.5797 -0.2363 3.1286 -8.6371 -3.0135 6.3236 13.7180 1.9931 8.1484 -2.5861 1.9238 4.1442 -11.2459 -3.2792 2.7899 -4.1177 4.0357 3.7544 3.1517 1.9330 1.9205 1.5516 0.0000 -0.0000 0.0000 -120.9907 -66.6032 135.4980 144.3393 -45.2782 -104.7191 -0.0000 0.0000 -10.1931 -2.6127 14.3291 -0.6470 -7.1250 0.0000 -0.0000 -26.8088 42.5787 1.7392 0.0000 -0.0000 0.0000 87.9060 39.4100 94.3980 -51.0387 53.4059 -27.0059 0.0000 0.0000 8.7909 2.3826 -8.5357 -0.3538 7.1250 -0.0000 -0.0000 24.5551 -37.3670 4.9837
-0.5588 14.8573 -1.2624 -11.0233 -30.1164 15.2851 0.0000 0.0000 0.0000 -7.9653 16.1503 -68.1087 13.7024 19.0213 71.2934 -1.6392 23.2662 -17.3069 0.0797 1.8210 5.0111 0.0000 0.0000 0.0000 3.8704 -0.7108 2.6355 -4.7545 -13.1019 39.7511 0.4355 -11.6312 -5.1923 -0.4524 4.3152 -11.9651 -2.5539 6.3684 13.5722 2.3087 8.3270 -2.6018 1.9826 4.2146 -11.1739 -2.9123 3.1648 -4.1502 3.7537 4.2354 3.6008 1.7972 2.1592 1.6937 0.0000 0.0000 0.0000 -110.7269 -65.9785 124.5495 144.6762 -45.0420 -104.9580 -0.0000 0.0000 -8.8490 -6.8131 10.7511 -1.2768 -7.1250 0.0000 -0.0000 -28.8068 38.9882 4.7399 0.0000 0.0000 0.0000 86.4597 36.7803 93.2038 -58.4548 55.8839 -33.0586 0.0000 0.0000 9.2921 4.5837 -6.5566 -0.5245 7.1250 -0.0000 -0.0000 25.6625 -35.4117 6.6052
-0.5885 14.8478 -1.4282 -12.1695 -31.2377 15.9060 0.0000 0.0000 0.0000 -6.1524 16.3937 -68.0804 13.7150 19.0253 71.3323 -1.6712 23.2657 -16.6797 0.1035 2.0744 5.7113 0.0000 0.0000 0.0000 4.7303 -0.0651 3.3869 -4.2628 -12.5022 37.5325 0.4074 -11.2593 -5.0597 -0.7724 5.6118 -15.6620 -1.9582 6.2985 13.4076 2.6576 8.3766 -2.6293 2.0370 4.2167 -11.0790 -2.5305 3.5682 -4.2227 3.4419 4.7549 4.1450 1.6561 2.4167 1.8778 0.0000 -0.0000 0.0000 -100.2964 -64.2685 112.9853 144.7972 -44.9564 -105.0435 -0.0000 0.0000 -7.7925 -12.2870 6.9215 -1.5035 -7.1250 0.0000 -0.0000 -31.5286 35.1482 8.7766 0.0000 -0.0000 0.0000 84.8811 33.6918 91.6502 -67.1120 57.9250 -40.3165 0.0000 0.0000 8.9755 6.8787 -4.5542 -0.5488 7.1250 -0.0000 -0.0000 26.7985 -33.4525 8.3938
-0.6219 14.8302 -1.5934 -13.2938 -32.0868 16.5369 0.0000 0.0000 0.0000 -4.2660 16.3985 -68.0419 13.7533 19.0375 71.4498 -1.6675 23.0671 -15.9509 0.1226 2.2574 6.2174 0.0000 0.0000 0.0000 5.7522 0.3235 4.0736 -3.8482 -11.9556 35.5751 0.4177 -11.4167 -5.3714 -1.2253 7.0206 -19.7764 -1.2784 6.1197 13.2216 3.0237 8.2915 -2.6464 2.0988 4.1502 -10.9413 -2.1261 4.0039 -4.3575 3.0714 5.3202 4.7746 1.5007 2.6959 2.1073 0.0000 -0.0000 0.0000 -90.7955 -61.4360 101.9131 144.6341 -45.0717 -104.9282 -0.0000 0.0000 -7.6813 -18.4361 3.4854 -1.1610 -7.1250 0.0000 -0.0000 -34.5156 31.5973 13.6250 0.0000 -0.0000 0.0000 83.2368 30.1915 89.7890 -76.6965 59.3206 -48.5052 0.0000 0.0000 7.6779 9.2571 -2.6793 -0.4365 7.1250 -0.0000 -0.0000 27.9870 -31.6184 10.2767
-0.6585 14.8059 -1.7578 -14.2967 -32.6659 17.1397 0.0000 0.0000 0.0000 -2.4102 16.1670 -68.0429 13.8172 19.0577 71.6454 -1.6209 22.6200 -15.0946 0.1307 2.3305 6.4199 0.0000 0.0000 0.0000 6.8395 0.3791 4.6730 -3.4955 -11.4569 33.8368 0.4689 -12.1333 -6.1890 -1.7764 8.3840 -23.8867 -0.5762 5.8361 13.0006 3.3720 8.0621 -2.6581 2.1653 4.0129 -10.7633 -1.6822 4.4708 -4.5675 2.6424 5.9302 5.4678 1.3292 2.9957 2.3809 -0.0000 -0.0000 0.0000 -82.8551 -57.6085 91.9802 144.1297 -45.4237 -104.5700 -0.0000 0.0000 -9.1179 -25.1784 1.9058 -0.8957 -7.1250 0.0000 -0.0000 -37.9902 29.4155 18.4484 -0.0000 -0.0000 0.0000 81.6082 26.3253 87.6028 -86.5998 59.9563 -57.0558 0.0000 0.0000 5.3155 11.8134 -0.9653 -0.2019 7.1250 -0.0000 -0.0000 29.2884 -29.9228 12.2832
-0.6985 14.7761 -1.9192 -15.1099 -33.0321 17.6348 0.0000 0.0000 0.0000 -0.6554 15.7573 -68.0470 13.9086 19.0861 71.9253 -1.5224 21.8571 -14.1140 0.1215 2.2474 6.1898 0.0000 0.0000 0.0000 7.8938 0.0918 5.2166 -3.1906 -10.9974 32.2712 0.5602 -13.3421 -7.5351 -2.3613 9.5812 -27.6310 0.0910 5.4739 12.7731 3.6831 7.7111 -2.6578 2.2365 3.8180 -10.5635 -1.2096 4.9605 -4.8317 2.1762 6.5740 6.1868 1.1492 3.3105 2.6849 -0.0000 0.0000 0.0000 -76.6224 -53.0041 83.3004 143.1872 -46.0640 -103.8949 -0.0000 0.0000 -12.5933 -32.7045 3.5083 -2.2501 -7.1250 0.0000 -0.0000 -42.3342 29.4164 22.3095 -0.0000 0.0000 0.0000 80.0229 22.0977 85.0286 -96.1302 59.8575 -65.3064 0.0000 0.0000 1.9047 14.6203 0.5532 0.1443 7.1250 -0.0000 -0.0000 30.7390 -28.3764 14.4501
